<?xml version="1.0" encoding="UTF-8"?>
<svg id="Layer_2" data-name="Layer 2" xmlns="http://www.w3.org/2000/svg" viewBox="0 0 154.27 140.52">
  <defs>
    <style>
      .cls-1 {
        fill: #c4f2f7;
        stroke: #9feded;
        stroke-miterlimit: 10;
      }

      .cls-2 {
        fill: #60aeef;
        stroke-width: 0px;
      }
    </style>
  </defs>
  <g id="Layer_1-2" data-name="Layer 1">
    <path class="cls-1" d="M26.32,87.78c-34.43,0-34.43-50.32,0-50.32C18.46-.76,89.3-15.32,97.16,22.9c18.9-22.37,57.3,10.07,38.4,32.44,24.28,0,24.28,32.44,0,32.44H26.32Z"/>
    <path class="cls-2" d="M18.95,92.37l-.02-.09s-.02.04-.03.06c-.02-.01-.04-.02-.06-.03l.02.09c-6.02,10.25-1.09,23.32,5.91,22.53h0s.03,0,.04,0c.02,0,.03,0,.05,0h0c6.49-2.76,4.37-16.57-5.91-22.54Z"/>
    <path class="cls-2" d="M43.52,92.37l-.02-.09s-.02.04-.03.06c-.02-.01-.04-.02-.06-.03l.02.09c-6.02,10.25-1.09,23.32,5.91,22.53h0s.03,0,.04,0c.02,0,.03,0,.05,0h0c6.49-2.76,4.37-16.57-5.91-22.54Z"/>
    <path class="cls-2" d="M67.53,92.37l-.02-.09s-.02.04-.03.06c-.02-.01-.04-.02-.06-.03l.02.09c-6.02,10.25-1.09,23.32,5.91,22.53h0s.03,0,.04,0c.02,0,.03,0,.05,0h0c6.49-2.76,4.37-16.57-5.91-22.54Z"/>
    <path class="cls-2" d="M92.74,92.37l-.02-.09s-.02.04-.03.06c-.02-.01-.04-.02-.06-.03l.02.09c-6.02,10.25-1.09,23.32,5.91,22.53h0s.03,0,.04,0c.02,0,.03,0,.05,0h0c6.49-2.76,4.37-16.57-5.91-22.54Z"/>
    <path class="cls-2" d="M118.81,92.37l-.02-.09s-.02.04-.03.06c-.02-.01-.04-.02-.06-.03l.02.09c-6.02,10.25-1.09,23.32,5.91,22.53h0s.03,0,.04,0c.02,0,.03,0,.05,0h0c6.49-2.76,4.37-16.57-5.91-22.54Z"/>
    <path class="cls-2" d="M143.14,92.37l-.02-.09s-.02.04-.03.06c-.02-.01-.04-.02-.06-.03l.02.09c-6.02,10.25-1.09,23.32,5.91,22.53h0s.03,0,.04,0c.02,0,.03,0,.05,0h0c6.49-2.76,4.37-16.57-5.91-22.54Z"/>
    <path class="cls-2" d="M35.33,117.94l-.02-.09s-.02.04-.03.06c-.02-.01-.04-.02-.06-.03l.02.09c-6.02,10.25-1.09,23.32,5.91,22.53h0s.03,0,.04,0c.02,0,.03,0,.05,0h0c6.49-2.76,4.37-16.57-5.91-22.54Z"/>
    <path class="cls-2" d="M59.91,117.94l-.02-.09s-.02.04-.03.06c-.02-.01-.04-.02-.06-.03l.02.09c-6.02,10.25-1.09,23.32,5.91,22.53h0s.03,0,.04,0c.02,0,.03,0,.05,0h0c6.49-2.76,4.37-16.57-5.91-22.54Z"/>
    <path class="cls-2" d="M83.92,117.94l-.02-.09s-.02.04-.03.06c-.02-.01-.04-.02-.06-.03l.02.09c-6.02,10.25-1.09,23.32,5.91,22.53h0s.03,0,.04,0c.02,0,.03,0,.05,0h0c6.49-2.76,4.37-16.57-5.91-22.54Z"/>
    <path class="cls-2" d="M109.12,117.94l-.02-.09s-.02.04-.03.06c-.02-.01-.04-.02-.06-.03l.02.09c-6.02,10.25-1.09,23.32,5.91,22.53h0s.03,0,.04,0c.02,0,.03,0,.05,0h0c6.49-2.76,4.37-16.57-5.91-22.54Z"/>
    <path class="cls-2" d="M135.19,117.94l-.02-.09s-.02.04-.03.06c-.02-.01-.04-.02-.06-.03l.02.09c-6.02,10.25-1.09,23.32,5.91,22.53h0s.03,0,.04,0c.02,0,.03,0,.05,0h0c6.49-2.76,4.37-16.57-5.91-22.54Z"/>
  </g>
</svg>